<svg width="48" height="48" viewBox="0 0 48 48" fill="none" xmlns="http://www.w3.org/2000/svg">
<path d="M18.978 0.00801416L20.436 0.00201416H27.564L29.024 0.00801416L30.852 0.0280142L31.718 0.0420142L32.554 0.0640142L33.36 0.0920142L34.136 0.124014L34.884 0.166014L35.604 0.216014L36.294 0.276014L36.96 0.342014C40.44 0.734014 42.826 1.57401 44.626 3.37401C46.426 5.17401 47.266 7.55801 47.658 11.04L47.726 11.706L47.784 12.398L47.834 13.118L47.874 13.864L47.924 15.04L47.948 15.86L47.974 17.148L47.992 18.978L48 20.938L47.998 27.564L47.992 29.024L47.972 30.852L47.958 31.718L47.936 32.554L47.908 33.36L47.876 34.136L47.834 34.884L47.784 35.604L47.724 36.294L47.658 36.96C47.266 40.44 46.426 42.826 44.626 44.626C42.826 46.426 40.442 47.266 36.96 47.658L36.294 47.726L35.602 47.784L34.882 47.834L34.136 47.874L32.96 47.924L32.14 47.948L30.852 47.974L29.022 47.992L27.062 48L20.436 47.998L18.976 47.992L17.148 47.972L16.282 47.958L15.446 47.936L14.64 47.908L13.864 47.876L13.116 47.834L12.396 47.784L11.706 47.724L11.04 47.658C7.56 47.266 5.174 46.426 3.374 44.626C1.574 42.826 0.734 40.442 0.342 36.96L0.274 36.294L0.216 35.602L0.166 34.882L0.126 34.136L0.076 32.96L0.052 32.14L0.026 30.852L0.008 29.022L0 27.062L0.002 20.436L0.008 18.976L0.028 17.148L0.042 16.282L0.064 15.446L0.092 14.64L0.124 13.864L0.166 13.116L0.216 12.396L0.276 11.706L0.342 11.04C0.734 7.56001 1.574 5.17401 3.374 3.37401C5.174 1.57401 7.558 0.734014 11.04 0.342014L11.706 0.274014L12.398 0.216014L13.118 0.166014L13.864 0.126014L15.04 0.0760142L15.86 0.0520142L17.148 0.0260142L18.978 0.00801416ZM13.58 14.6H8.1C8.36 27.08 14.6 34.58 25.54 34.58H26.16V27.44C30.18 27.84 33.22 30.78 34.44 34.58H40.12C38.56 28.9 34.46 25.76 31.9 24.56C34.46 23.08 38.06 19.48 38.92 14.6H33.76C32.64 18.56 29.32 22.16 26.16 22.5V14.6H21V28.44C17.8 27.64 13.76 23.76 13.58 14.6Z" fill="#3A20DB"/>
</svg>
